<?xml version="1.0" encoding="UTF-8" standalone="no"?>
<!DOCTYPE svg PUBLIC "-//W3C//DTD SVG 1.1//EN"
 "http://www.w3.org/Graphics/SVG/1.1/DTD/svg11.dtd">
<!-- Generated by graphviz version 2.40.1 (20161225.0304)
 -->
<!-- Title: dependencies Pages: 1 -->
<svg width="1293pt" height="211pt"
 viewBox="0.00 0.00 1293.00 211.00" xmlns="http://www.w3.org/2000/svg" xmlns:xlink="http://www.w3.org/1999/xlink">
<g id="graph0" class="graph" transform="scale(1 1) rotate(0) translate(4 207)">
<title>dependencies</title>
<polygon fill="#ffffff" stroke="transparent" points="-4,4 -4,-207 1289,-207 1289,4 -4,4"/>
<text text-anchor="start" x="621.5091" y="-42.4" font-family="sans-serif" font-weight="bold" font-size="14.00" fill="#000000">Legend</text>
<polygon fill="#ffffb3" stroke="transparent" points="408.5,-10 408.5,-30 428.5,-30 428.5,-10 408.5,-10"/>
<text text-anchor="start" x="432.129" y="-15.4" font-family="sans-serif" font-size="14.00" fill="#000000"> &#160;Declarations</text>
<polygon fill="#8dd3c7" stroke="transparent" points="521.5,-10 521.5,-30 541.5,-30 541.5,-10 521.5,-10"/>
<text text-anchor="start" x="545.2251" y="-15.4" font-family="sans-serif" font-size="14.00" fill="#000000"> &#160;Module</text>
<polygon fill="#80b1d3" stroke="transparent" points="607.5,-10 607.5,-30 627.5,-30 627.5,-10 607.5,-10"/>
<text text-anchor="start" x="631.2812" y="-15.4" font-family="sans-serif" font-size="14.00" fill="#000000"> &#160;Bootstrap</text>
<polygon fill="#fdb462" stroke="transparent" points="704.5,-10 704.5,-30 724.5,-30 724.5,-10 704.5,-10"/>
<text text-anchor="start" x="728.1732" y="-15.4" font-family="sans-serif" font-size="14.00" fill="#000000"> &#160;Providers</text>
<polygon fill="#fb8072" stroke="transparent" points="800.5,-10 800.5,-30 820.5,-30 820.5,-10 800.5,-10"/>
<text text-anchor="start" x="824.2258" y="-15.4" font-family="sans-serif" font-size="14.00" fill="#000000"> &#160;Exports</text>
<g id="clust1" class="cluster">
<title>cluster_RecipesModule</title>
<polygon fill="none" stroke="#000000" stroke-dasharray="1,5" points="8,-70 8,-195 1277,-195 1277,-70 8,-70"/>
</g>
<g id="clust2" class="cluster">
<title>cluster_RecipesModule_declarations</title>
<polygon fill="none" stroke="#000000" points="305,-78 305,-130 1269,-130 1269,-78 305,-78"/>
</g>
<g id="clust9" class="cluster">
<title>cluster_RecipesModule_imports</title>
<polygon fill="none" stroke="#000000" points="16,-78 16,-130 297,-130 297,-78 16,-78"/>
</g>
<!-- RecipeDetailComponent -->
<g id="node1" class="node">
<title>RecipeDetailComponent</title>
<polygon fill="#ffffb3" stroke="#000000" points="1261.4115,-122 1106.5885,-122 1106.5885,-86 1261.4115,-86 1261.4115,-122"/>
<text text-anchor="middle" x="1184" y="-99.8" font-family="Times,serif" font-size="14.00" fill="#000000">RecipeDetailComponent</text>
</g>
<!-- RecipesModule -->
<g id="node7" class="node">
<title>RecipesModule</title>
<polygon fill="#8dd3c7" stroke="#000000" points="662.8655,-187 659.8655,-191 638.8655,-191 635.8655,-187 559.1345,-187 559.1345,-151 662.8655,-151 662.8655,-187"/>
<text text-anchor="middle" x="611" y="-164.8" font-family="Times,serif" font-size="14.00" fill="#000000">RecipesModule</text>
</g>
<!-- RecipeDetailComponent&#45;&gt;RecipesModule -->
<g id="edge1" class="edge">
<title>RecipeDetailComponent&#45;&gt;RecipesModule</title>
<path fill="none" stroke="#000000" d="M1184,-122.2921C1184,-144.2057 1184,-178 1184,-178 1184,-178 673.1145,-178 673.1145,-178"/>
<polygon fill="#000000" stroke="#000000" points="673.1145,-174.5001 663.1145,-178 673.1144,-181.5001 673.1145,-174.5001"/>
</g>
<!-- RecipeEditComponent -->
<g id="node2" class="node">
<title>RecipeEditComponent</title>
<polygon fill="#ffffb3" stroke="#000000" points="1088.5379,-122 945.4621,-122 945.4621,-86 1088.5379,-86 1088.5379,-122"/>
<text text-anchor="middle" x="1017" y="-99.8" font-family="Times,serif" font-size="14.00" fill="#000000">RecipeEditComponent</text>
</g>
<!-- RecipeEditComponent&#45;&gt;RecipesModule -->
<g id="edge2" class="edge">
<title>RecipeEditComponent&#45;&gt;RecipesModule</title>
<path fill="none" stroke="#000000" d="M1017,-122.1061C1017,-141.3391 1017,-169 1017,-169 1017,-169 673.2462,-169 673.2462,-169"/>
<polygon fill="#000000" stroke="#000000" points="673.2463,-165.5001 663.2462,-169 673.2462,-172.5001 673.2463,-165.5001"/>
</g>
<!-- RecipeItemComponent -->
<g id="node3" class="node">
<title>RecipeItemComponent</title>
<polygon fill="#ffffb3" stroke="#000000" points="926.8599,-122 781.1401,-122 781.1401,-86 926.8599,-86 926.8599,-122"/>
<text text-anchor="middle" x="854" y="-99.8" font-family="Times,serif" font-size="14.00" fill="#000000">RecipeItemComponent</text>
</g>
<!-- RecipeItemComponent&#45;&gt;RecipesModule -->
<g id="edge3" class="edge">
<title>RecipeItemComponent&#45;&gt;RecipesModule</title>
<path fill="none" stroke="#000000" d="M854,-122.027C854,-138.3976 854,-160 854,-160 854,-160 673.1296,-160 673.1296,-160"/>
<polygon fill="#000000" stroke="#000000" points="673.1296,-156.5001 663.1296,-160 673.1296,-163.5001 673.1296,-156.5001"/>
</g>
<!-- RecipeListComponent -->
<g id="node4" class="node">
<title>RecipeListComponent</title>
<polygon fill="#ffffb3" stroke="#000000" points="762.9818,-122 621.0182,-122 621.0182,-86 762.9818,-86 762.9818,-122"/>
<text text-anchor="middle" x="692" y="-99.8" font-family="Times,serif" font-size="14.00" fill="#000000">RecipeListComponent</text>
</g>
<!-- RecipeListComponent&#45;&gt;RecipesModule -->
<g id="edge4" class="edge">
<title>RecipeListComponent&#45;&gt;RecipesModule</title>
<path fill="none" stroke="#000000" d="M641.9709,-122.1061C641.9709,-122.1061 641.9709,-140.991 641.9709,-140.991"/>
<polygon fill="#000000" stroke="#000000" points="638.471,-140.9909 641.9709,-150.991 645.471,-140.991 638.471,-140.9909"/>
</g>
<!-- RecipeStartComponent -->
<g id="node5" class="node">
<title>RecipeStartComponent</title>
<polygon fill="#ffffb3" stroke="#000000" points="603.1428,-122 456.8572,-122 456.8572,-86 603.1428,-86 603.1428,-122"/>
<text text-anchor="middle" x="530" y="-99.8" font-family="Times,serif" font-size="14.00" fill="#000000">RecipeStartComponent</text>
</g>
<!-- RecipeStartComponent&#45;&gt;RecipesModule -->
<g id="edge5" class="edge">
<title>RecipeStartComponent&#45;&gt;RecipesModule</title>
<path fill="none" stroke="#000000" d="M581.1943,-122.1061C581.1943,-122.1061 581.1943,-140.991 581.1943,-140.991"/>
<polygon fill="#000000" stroke="#000000" points="577.6943,-140.9909 581.1943,-150.991 584.6943,-140.991 577.6943,-140.9909"/>
</g>
<!-- RecipesComponent -->
<g id="node6" class="node">
<title>RecipesComponent</title>
<polygon fill="#ffffb3" stroke="#000000" points="438.6485,-122 313.3515,-122 313.3515,-86 438.6485,-86 438.6485,-122"/>
<text text-anchor="middle" x="376" y="-99.8" font-family="Times,serif" font-size="14.00" fill="#000000">RecipesComponent</text>
</g>
<!-- RecipesComponent&#45;&gt;RecipesModule -->
<g id="edge6" class="edge">
<title>RecipesComponent&#45;&gt;RecipesModule</title>
<path fill="none" stroke="#000000" d="M376,-122.027C376,-138.3976 376,-160 376,-160 376,-160 548.8459,-160 548.8459,-160"/>
<polygon fill="#000000" stroke="#000000" points="548.8459,-163.5001 558.8459,-160 548.8458,-156.5001 548.8459,-163.5001"/>
</g>
<!-- RecipesRoutingModule -->
<g id="node8" class="node">
<title>RecipesRoutingModule</title>
<polygon fill="#8dd3c7" stroke="#000000" points="289.4832,-122 286.4832,-126 265.4832,-126 262.4832,-122 140.5168,-122 140.5168,-86 289.4832,-86 289.4832,-122"/>
<text text-anchor="middle" x="215" y="-99.8" font-family="Times,serif" font-size="14.00" fill="#000000">RecipesRoutingModule</text>
</g>
<!-- RecipesRoutingModule&#45;&gt;RecipesModule -->
<g id="edge7" class="edge">
<title>RecipesRoutingModule&#45;&gt;RecipesModule</title>
<path fill="none" stroke="#000000" d="M215,-122.1061C215,-141.3391 215,-169 215,-169 215,-169 548.8227,-169 548.8227,-169"/>
<polygon fill="#000000" stroke="#000000" points="548.8227,-172.5001 558.8227,-169 548.8227,-165.5001 548.8227,-172.5001"/>
</g>
<!-- SharedModule -->
<g id="node9" class="node">
<title>SharedModule</title>
<polygon fill="#8dd3c7" stroke="#000000" points="122.4231,-122 119.4231,-126 98.4231,-126 95.4231,-122 23.5769,-122 23.5769,-86 122.4231,-86 122.4231,-122"/>
<text text-anchor="middle" x="73" y="-99.8" font-family="Times,serif" font-size="14.00" fill="#000000">SharedModule</text>
</g>
<!-- SharedModule&#45;&gt;RecipesModule -->
<g id="edge8" class="edge">
<title>SharedModule&#45;&gt;RecipesModule</title>
<path fill="none" stroke="#000000" d="M73,-122.2921C73,-144.2057 73,-178 73,-178 73,-178 548.9255,-178 548.9255,-178"/>
<polygon fill="#000000" stroke="#000000" points="548.9255,-181.5001 558.9255,-178 548.9254,-174.5001 548.9255,-181.5001"/>
</g>
</g>
</svg>
