<?xml version="1.0" encoding="UTF-8" standalone="no"?>
<!DOCTYPE svg PUBLIC "-//W3C//DTD SVG 1.1//EN"
 "http://www.w3.org/Graphics/SVG/1.1/DTD/svg11.dtd">
<!-- Generated by graphviz version 2.40.1 (20161225.0304)
 -->
<!-- Title: dependencies Pages: 1 -->
<svg width="1416pt" height="284pt"
 viewBox="0.00 0.00 1416.00 284.00" xmlns="http://www.w3.org/2000/svg" xmlns:xlink="http://www.w3.org/1999/xlink">
<g id="graph0" class="graph" transform="scale(1 1) rotate(0) translate(4 280)">
<title>dependencies</title>
<polygon fill="#ffffff" stroke="transparent" points="-4,4 -4,-280 1412,-280 1412,4 -4,4"/>
<text text-anchor="start" x="683.0091" y="-42.4" font-family="sans-serif" font-weight="bold" font-size="14.00" fill="#000000">Legend</text>
<polygon fill="#ffffb3" stroke="transparent" points="470,-10 470,-30 490,-30 490,-10 470,-10"/>
<text text-anchor="start" x="493.629" y="-15.4" font-family="sans-serif" font-size="14.00" fill="#000000"> &#160;Declarations</text>
<polygon fill="#8dd3c7" stroke="transparent" points="583,-10 583,-30 603,-30 603,-10 583,-10"/>
<text text-anchor="start" x="606.7251" y="-15.4" font-family="sans-serif" font-size="14.00" fill="#000000"> &#160;Module</text>
<polygon fill="#80b1d3" stroke="transparent" points="669,-10 669,-30 689,-30 689,-10 669,-10"/>
<text text-anchor="start" x="692.7812" y="-15.4" font-family="sans-serif" font-size="14.00" fill="#000000"> &#160;Bootstrap</text>
<polygon fill="#fdb462" stroke="transparent" points="766,-10 766,-30 786,-30 786,-10 766,-10"/>
<text text-anchor="start" x="789.6732" y="-15.4" font-family="sans-serif" font-size="14.00" fill="#000000"> &#160;Providers</text>
<polygon fill="#fb8072" stroke="transparent" points="862,-10 862,-30 882,-30 882,-10 862,-10"/>
<text text-anchor="start" x="885.7258" y="-15.4" font-family="sans-serif" font-size="14.00" fill="#000000"> &#160;Exports</text>
<g id="clust1" class="cluster">
<title>cluster_CoreModule</title>
<polygon fill="none" stroke="#000000" stroke-dasharray="1,5" points="8,-70 8,-268 1400,-268 1400,-70 8,-70"/>
</g>
<g id="clust2" class="cluster">
<title>cluster_CoreModule_declarations</title>
<polygon fill="none" stroke="#000000" points="937,-78 937,-130 1392,-130 1392,-78 937,-78"/>
</g>
<g id="clust6" class="cluster">
<title>cluster_CoreModule_imports</title>
<polygon fill="none" stroke="#000000" points="668,-78 668,-130 929,-130 929,-78 668,-78"/>
</g>
<g id="clust7" class="cluster">
<title>cluster_CoreModule_exports</title>
<polygon fill="none" stroke="#000000" points="581,-208 581,-260 873,-260 873,-208 581,-208"/>
</g>
<g id="clust9" class="cluster">
<title>cluster_CoreModule_providers</title>
<polygon fill="none" stroke="#000000" points="16,-78 16,-130 660,-130 660,-78 16,-78"/>
</g>
<!-- HeaderComponent -->
<g id="node1" class="node">
<title>HeaderComponent</title>
<polygon fill="#ffffb3" stroke="#000000" points="1383.7437,-122 1262.2563,-122 1262.2563,-86 1383.7437,-86 1383.7437,-122"/>
<text text-anchor="middle" x="1323" y="-99.8" font-family="Times,serif" font-size="14.00" fill="#000000">HeaderComponent</text>
</g>
<!-- CoreModule -->
<g id="node4" class="node">
<title>CoreModule</title>
<polygon fill="#8dd3c7" stroke="#000000" points="768.2619,-187 765.2619,-191 744.2619,-191 741.2619,-187 681.7381,-187 681.7381,-151 768.2619,-151 768.2619,-187"/>
<text text-anchor="middle" x="725" y="-164.8" font-family="Times,serif" font-size="14.00" fill="#000000">CoreModule</text>
</g>
<!-- HeaderComponent&#45;&gt;CoreModule -->
<g id="edge1" class="edge">
<title>HeaderComponent&#45;&gt;CoreModule</title>
<path fill="none" stroke="#000000" d="M1323,-122.0109C1323,-144.4852 1323,-180 1323,-180 1323,-180 778.4884,-180 778.4884,-180"/>
<polygon fill="#000000" stroke="#000000" points="778.4884,-176.5001 768.4884,-180 778.4883,-183.5001 778.4884,-176.5001"/>
</g>
<!-- HomeComponent -->
<g id="node2" class="node">
<title>HomeComponent</title>
<polygon fill="#ffffb3" stroke="#000000" points="1243.5451,-122 1128.4549,-122 1128.4549,-86 1243.5451,-86 1243.5451,-122"/>
<text text-anchor="middle" x="1186" y="-99.8" font-family="Times,serif" font-size="14.00" fill="#000000">HomeComponent</text>
</g>
<!-- HomeComponent&#45;&gt;CoreModule -->
<g id="edge2" class="edge">
<title>HomeComponent&#45;&gt;CoreModule</title>
<path fill="none" stroke="#000000" d="M1186,-122.1289C1186,-142.5724 1186,-173 1186,-173 1186,-173 778.3698,-173 778.3698,-173"/>
<polygon fill="#000000" stroke="#000000" points="778.3698,-169.5001 768.3698,-173 778.3697,-176.5001 778.3698,-169.5001"/>
</g>
<!-- PageNotFoundComponent -->
<g id="node3" class="node">
<title>PageNotFoundComponent</title>
<polygon fill="#ffffb3" stroke="#000000" points="1110.8243,-122 945.1757,-122 945.1757,-86 1110.8243,-86 1110.8243,-122"/>
<text text-anchor="middle" x="1028" y="-99.8" font-family="Times,serif" font-size="14.00" fill="#000000">PageNotFoundComponent</text>
</g>
<!-- PageNotFoundComponent&#45;&gt;CoreModule -->
<g id="edge3" class="edge">
<title>PageNotFoundComponent&#45;&gt;CoreModule</title>
<path fill="none" stroke="#000000" d="M1028,-122.2667C1028,-140.5552 1028,-166 1028,-166 1028,-166 778.4125,-166 778.4125,-166"/>
<polygon fill="#000000" stroke="#000000" points="778.4125,-162.5001 768.4125,-166 778.4125,-169.5001 778.4125,-162.5001"/>
</g>
<!-- AppRoutingModule  -->
<g id="node7" class="node">
<title>AppRoutingModule </title>
<polygon fill="#fb8072" stroke="#000000" points="865.2745,-252 732.7255,-252 732.7255,-216 865.2745,-216 865.2745,-252"/>
<text text-anchor="middle" x="799" y="-229.8" font-family="Times,serif" font-size="14.00" fill="#000000">AppRoutingModule </text>
</g>
<!-- CoreModule&#45;&gt;AppRoutingModule  -->
<g id="edge6" class="edge">
<title>CoreModule&#45;&gt;AppRoutingModule </title>
<path fill="none" stroke="#000000" stroke-dasharray="5,2" d="M750.6219,-187.1061C750.6219,-187.1061 750.6219,-205.991 750.6219,-205.991"/>
<polygon fill="#000000" stroke="#000000" points="747.1219,-205.9909 750.6219,-215.991 754.1219,-205.991 747.1219,-205.9909"/>
</g>
<!-- HeaderComponent  -->
<g id="node8" class="node">
<title>HeaderComponent </title>
<polygon fill="#fb8072" stroke="#000000" points="714.7436,-252 589.2564,-252 589.2564,-216 714.7436,-216 714.7436,-252"/>
<text text-anchor="middle" x="652" y="-229.8" font-family="Times,serif" font-size="14.00" fill="#000000">HeaderComponent </text>
</g>
<!-- CoreModule&#45;&gt;HeaderComponent  -->
<g id="edge7" class="edge">
<title>CoreModule&#45;&gt;HeaderComponent </title>
<path fill="none" stroke="#000000" stroke-dasharray="5,2" d="M698.1205,-187.1061C698.1205,-187.1061 698.1205,-205.991 698.1205,-205.991"/>
<polygon fill="#000000" stroke="#000000" points="694.6205,-205.9909 698.1205,-215.991 701.6205,-205.991 694.6205,-205.9909"/>
</g>
<!-- AppRoutingModule -->
<g id="node5" class="node">
<title>AppRoutingModule</title>
<polygon fill="#8dd3c7" stroke="#000000" points="921.2744,-122 918.2744,-126 897.2744,-126 894.2744,-122 792.7256,-122 792.7256,-86 921.2744,-86 921.2744,-122"/>
<text text-anchor="middle" x="857" y="-99.8" font-family="Times,serif" font-size="14.00" fill="#000000">AppRoutingModule</text>
</g>
<!-- AppRoutingModule&#45;&gt;CoreModule -->
<g id="edge4" class="edge">
<title>AppRoutingModule&#45;&gt;CoreModule</title>
<path fill="none" stroke="#000000" d="M828.875,-122.0091C828.875,-138.0494 828.875,-159 828.875,-159 828.875,-159 778.4505,-159 778.4505,-159"/>
<polygon fill="#000000" stroke="#000000" points="778.4505,-155.5001 768.4505,-159 778.4504,-162.5001 778.4505,-155.5001"/>
</g>
<!-- SharedModule -->
<g id="node6" class="node">
<title>SharedModule</title>
<polygon fill="#8dd3c7" stroke="#000000" points="774.4231,-122 771.4231,-126 750.4231,-126 747.4231,-122 675.5769,-122 675.5769,-86 774.4231,-86 774.4231,-122"/>
<text text-anchor="middle" x="725" y="-99.8" font-family="Times,serif" font-size="14.00" fill="#000000">SharedModule</text>
</g>
<!-- SharedModule&#45;&gt;CoreModule -->
<g id="edge5" class="edge">
<title>SharedModule&#45;&gt;CoreModule</title>
<path fill="none" stroke="#000000" d="M725,-122.1061C725,-122.1061 725,-140.991 725,-140.991"/>
<polygon fill="#000000" stroke="#000000" points="721.5001,-140.9909 725,-150.991 728.5001,-140.991 721.5001,-140.9909"/>
</g>
<!-- AuthInterceptor -->
<g id="node9" class="node">
<title>AuthInterceptor</title>
<ellipse fill="#fdb462" stroke="#000000" cx="579" cy="-104" rx="72.9121" ry="18"/>
<text text-anchor="middle" x="579" y="-99.8" font-family="Times,serif" font-size="14.00" fill="#000000">AuthInterceptor</text>
</g>
<!-- AuthInterceptor&#45;&gt;CoreModule -->
<g id="edge8" class="edge">
<title>AuthInterceptor&#45;&gt;CoreModule</title>
<path fill="none" stroke="#000000" d="M620.542,-119.029C620.542,-135.3135 620.542,-159 620.542,-159 620.542,-159 671.6079,-159 671.6079,-159"/>
<polygon fill="#000000" stroke="#000000" points="671.6079,-162.5001 681.6079,-159 671.6079,-155.5001 671.6079,-162.5001"/>
</g>
<!-- AuthService -->
<g id="node10" class="node">
<title>AuthService</title>
<ellipse fill="#fdb462" stroke="#000000" cx="429" cy="-104" rx="59.1083" ry="18"/>
<text text-anchor="middle" x="429" y="-99.8" font-family="Times,serif" font-size="14.00" fill="#000000">AuthService</text>
</g>
<!-- AuthService&#45;&gt;CoreModule -->
<g id="edge9" class="edge">
<title>AuthService&#45;&gt;CoreModule</title>
<path fill="none" stroke="#000000" d="M429,-122.2667C429,-140.5552 429,-166 429,-166 429,-166 671.6421,-166 671.6421,-166"/>
<polygon fill="#000000" stroke="#000000" points="671.6421,-169.5001 681.6421,-166 671.642,-162.5001 671.6421,-169.5001"/>
</g>
<!-- DataStorageService -->
<g id="node11" class="node">
<title>DataStorageService</title>
<ellipse fill="#fdb462" stroke="#000000" cx="264" cy="-104" rx="87.9355" ry="18"/>
<text text-anchor="middle" x="264" y="-99.8" font-family="Times,serif" font-size="14.00" fill="#000000">DataStorageService</text>
</g>
<!-- DataStorageService&#45;&gt;CoreModule -->
<g id="edge10" class="edge">
<title>DataStorageService&#45;&gt;CoreModule</title>
<path fill="none" stroke="#000000" d="M264,-122.1289C264,-142.5724 264,-173 264,-173 264,-173 671.6302,-173 671.6302,-173"/>
<polygon fill="#000000" stroke="#000000" points="671.6303,-176.5001 681.6302,-173 671.6302,-169.5001 671.6303,-176.5001"/>
</g>
<!-- RecipeService -->
<g id="node12" class="node">
<title>RecipeService</title>
<ellipse fill="#fdb462" stroke="#000000" cx="91" cy="-104" rx="66.6094" ry="18"/>
<text text-anchor="middle" x="91" y="-99.8" font-family="Times,serif" font-size="14.00" fill="#000000">RecipeService</text>
</g>
<!-- RecipeService&#45;&gt;CoreModule -->
<g id="edge11" class="edge">
<title>RecipeService&#45;&gt;CoreModule</title>
<path fill="none" stroke="#000000" d="M91,-122.0109C91,-144.4852 91,-180 91,-180 91,-180 671.4226,-180 671.4226,-180"/>
<polygon fill="#000000" stroke="#000000" points="671.4226,-183.5001 681.4226,-180 671.4226,-176.5001 671.4226,-183.5001"/>
</g>
</g>
</svg>
